<?xml version="1.0" encoding="utf-8"?>
<!-- Generator: Adobe Illustrator 22.0.0, SVG Export Plug-In . SVG Version: 6.00 Build 0)  -->
<svg version="1.0" id="Layer_1" xmlns="http://www.w3.org/2000/svg" xmlns:xlink="http://www.w3.org/1999/xlink" x="0px" y="0px"
	 viewBox="0 0 5000 4000" style="enable-background:new 0 0 5000 4000;" xml:space="preserve">
<style type="text/css">
	.st0{fill:#333333;}
</style>
<g>
	<g>
		<path class="st0" d="M4192.2,2282V1718l-495.7-20.4c-29.6-117.8-76.2-227.7-136.8-329.3l336.3-365.2l-398.4-399.1l-365.9,336.3
			c-101.5-60.6-212.2-107.2-329.3-136.8L2782,307.8H2218l-20.5,495.7c-117,29.6-227.7,76.2-328.6,136.8L1503,603.9L1103.9,1003
			l336.3,365.9c-60.6,100.8-107.2,211.5-136.8,328.6L807.8,1718V2282l495.7,20.5c29.6,117,76.2,227.7,136.8,329.3l-336.3,365.9
			l399.1,398.4l365.2-336.3c101.5,60.6,211.5,107.2,329.3,136.8l20.5,495.7H2782l20.4-495.7c117.8-29.6,228.5-76.2,330-136.8
			l365.2,336.3l398.4-398.4l-336.3-365.2c60.6-101.5,107.2-212.2,136.8-330L4192.2,2282z M3396.2,2454.1
			c-95.9,190.4-251.7,346.2-442.1,442.1c-45.1,23.3-92.4,43-141,58.5c-98,32.4-203.8,50.1-313.1,50.1s-215.1-17.6-313.1-50.1
			c-48.7-15.5-95.9-35.3-141-57.8c-190.4-96.6-345.5-252.4-442.1-442.1c-23.3-45.1-43-92.4-58.5-141.7
			c-32.4-98-50.1-203.8-50.1-313.1c0-109.3,17.6-215.1,50.1-313.1c15.5-48.7,35.3-95.9,57.8-141c96.6-190.4,252.4-346.2,442.8-442.8
			c45.1-22.6,92.4-42.3,141-57.8c98-32.4,203.8-50.1,313.1-50.1s215.1,17.6,313.1,50.1c49.4,15.5,96.6,35.3,141.7,58.5
			c189.7,96.6,345.5,251.7,442.1,442.1c22.6,45.1,42.3,92.4,57.8,141c32.4,98,50.1,203.8,50.1,313.1c0,109.3-17.6,215.1-50.1,313.1
			C3439.2,2361.7,3419.4,2409,3396.2,2454.1z"/>
	</g>
	<g>
		
			<ellipse transform="matrix(0.7071 -0.7071 0.7071 0.7071 -423.928 2246.6638)" class="st0" cx="2500" cy="1635.1" rx="401.6" ry="401.6"/>
		<path class="st0" d="M2640.5,2154.3h-271.2c-415.1,0-751.6,336.5-751.6,751.6c0,83,67.3,150.3,150.3,150.3h1454.2
			c88.4,0,160.1-71.7,160.1-160.1C3382.3,2486.4,3050.2,2154.3,2640.5,2154.3z"/>
	</g>
</g>
</svg>
